<?xml version="1.0" encoding="utf-8"?>
<!DOCTYPE svg PUBLIC "-//W3C//DTD SVG 1.1//EN" "http://www.w3.org/Graphics/SVG/1.1/DTD/svg11.dtd">
<svg version="1.1" id="Layer_2" xmlns="http://www.w3.org/2000/svg" xmlns:xlink="http://www.w3.org/1999/xlink" x="0px" y="0px"
	 width="240.038px" height="61.499px" viewBox="0 0 240.038 61.499" enable-background="new 0 0 240.038 61.499"
	 xml:space="preserve">
<circle fill="#1B264A" cx="37.226" cy="9.697" r="9.697"/>
<path fill="#1B264A" d="M69.571,20.117c-0.908,0.101-0.17,5.148-6.268,6.162c-3.269-6.578-9.926-11.094-17.628-11.094H26.569
	c-1.576,0-3.101,0.208-4.57,0.565c-0.598-0.94-2.108-2.769-5.023-3.218c-3.966-0.61-6.886,1.66-6.726,2.653
	c0.168,1.043,4.034,0.075,6.283,2.822c-4.794,2.899-8.292,7.796-9.38,13.584c-2.913,1.93-6.406,1.979-6.85,4.453
	c-1.992,11.117,6.483,10.537,6.483,10.537s3.566,5.71,13.104,8.139v1.425c0,2.957,2.397,5.354,5.354,5.354s5.354-2.397,5.354-5.354
	v-0.453h12.013v0.453c0,2.957,2.398,5.354,5.355,5.354s5.354-2.397,5.354-5.354v-1.646c0-0.125-0.028-0.242-0.037-0.365
	c7.147-3.053,12.174-10.271,12.174-18.696c0-2.498-0.463-4.88-1.271-7.089c1.312-0.448,2.917-1.197,4.021-2.396
	C70.531,23.431,70.28,20.038,69.571,20.117z M15.13,32.654c-1.791,0-3.243-1.452-3.243-3.243s1.452-3.243,3.243-3.243
	s3.244,1.452,3.244,3.243S16.921,32.654,15.13,32.654z M46.457,20.411h-18c-0.829,0-1.5-0.671-1.5-1.5s0.671-1.5,1.5-1.5h18
	c0.828,0,1.5,0.671,1.5,1.5S47.285,20.411,46.457,20.411z"/>
<g>
	<path fill="#1B264A" d="M85.017,20.898v17.808c0,2.54,0.414,4.397,1.244,5.572c1.238,1.697,2.98,2.547,5.228,2.547
		c2.26,0,4.008-0.85,5.246-2.547c0.83-1.136,1.245-2.993,1.245-5.572V20.898h4.461v19.033c0,3.114-0.97,5.681-2.91,7.697
		c-2.183,2.247-4.863,3.37-8.042,3.37s-5.853-1.123-8.023-3.37c-1.94-2.017-2.91-4.583-2.91-7.697V20.898H85.017z"/>
	<path fill="#1B264A" d="M119.541,37.863l9.152,12.6h-5.457l-8.444-12.102h-0.804v12.102h-4.462V20.898h5.228
		c3.906,0,6.728,0.734,8.463,2.202c1.915,1.634,2.873,3.792,2.873,6.472c0,2.093-0.601,3.893-1.801,5.4
		C123.089,36.478,121.506,37.442,119.541,37.863z M113.988,34.474h1.417c4.225,0,6.338-1.615,6.338-4.845
		c0-3.025-2.056-4.538-6.166-4.538h-1.589V34.474z"/>
	<path fill="#1B264A" d="M133.134,50.462V20.898h4.442c1.979,0,3.556,0.153,4.729,0.459c1.188,0.307,2.189,0.824,3.007,1.551
		c0.829,0.753,1.486,1.691,1.972,2.814c0.498,1.137,0.747,2.285,0.747,3.447c0,2.12-0.811,3.913-2.432,5.38
		c1.57,0.536,2.808,1.475,3.715,2.815c0.919,1.327,1.378,2.872,1.378,4.634c0,2.311-0.816,4.264-2.45,5.858
		c-0.983,0.983-2.088,1.666-3.312,2.049c-1.341,0.371-3.02,0.556-5.036,0.556H133.134z M137.596,33.593h1.397
		c1.659,0,2.875-0.367,3.647-1.102c0.772-0.733,1.159-1.815,1.159-3.245c0-1.391-0.396-2.448-1.188-3.169
		c-0.792-0.721-1.94-1.082-3.446-1.082h-1.57V33.593z M137.596,46.269h2.757c2.018,0,3.498-0.396,4.442-1.188
		c0.996-0.854,1.494-1.939,1.494-3.255c0-1.276-0.479-2.349-1.437-3.217c-0.932-0.855-2.598-1.283-4.997-1.283h-2.26V46.269z"/>
	<path fill="#1B264A" d="M173.25,43.282h-12.656l-3.294,7.181h-4.806l14.629-31.422l14.112,31.422h-4.883L173.25,43.282z
		 M171.431,39.088l-4.385-10.052l-4.596,10.052H171.431z"/>
	<path fill="#1B264A" d="M184.93,50.462V18.888l21.561,22.556V20.898h4.462v31.364l-21.561-22.499v20.699H184.93z"/>
	<path fill="#1B264A" d="M222.499,32.693l11.508-11.795h5.955l-13.365,13.385l13.441,16.18h-5.974l-10.646-13.154l-0.919,0.919
		v12.235h-4.462V20.898h4.462V32.693z"/>
</g>
</svg>
