<?xml version="1.0" encoding="utf-8"?>
<!-- Generator: Adobe Illustrator 15.0.0, SVG Export Plug-In . SVG Version: 6.00 Build 0)  -->
<!DOCTYPE svg PUBLIC "-//W3C//DTD SVG 1.1//EN" "http://www.w3.org/Graphics/SVG/1.1/DTD/svg11.dtd">
<svg version="1.1" id="Layer_2" xmlns="http://www.w3.org/2000/svg" xmlns:xlink="http://www.w3.org/1999/xlink" x="0px" y="0px"
	 width="117.388px" height="200.898px" viewBox="0 0 117.388 200.898" enable-background="new 0 0 117.388 200.898"
	 xml:space="preserve">
<path fill="#FFFFFF" d="M114.798,173.892c0,13.531-10.805,24.498-24.132,24.498H26.742c-13.327,0-24.131-10.967-24.131-24.498
	V27.602c0-13.529,10.804-24.498,24.131-24.498h63.924c13.327,0,24.132,10.968,24.132,24.498V173.892z"/>
<path fill="none" stroke="#179190" stroke-width="5" stroke-miterlimit="10" d="M114.798,173.892
	c0,13.531-10.805,24.498-24.132,24.498H26.742c-13.327,0-24.131-10.967-24.131-24.498V27.602c0-13.529,10.804-24.498,24.131-24.498
	h63.924c13.327,0,24.132,10.968,24.132,24.498V173.892z"/>
<rect x="11.34" y="28.791" fill="#BCD8C5" width="94.728" height="143.914"/>
<path fill="#14375D" d="M72.136,20.546c0,1.169-0.948,2.117-2.117,2.117H47.39c-1.169,0-2.117-0.948-2.117-2.117l0,0
	c0-1.169,0.948-2.117,2.117-2.117h22.629C71.188,18.429,72.136,19.377,72.136,20.546L72.136,20.546z"/>
<circle fill="#14375D" cx="58.704" cy="12.541" r="2.316"/>
<rect x="16.522" y="35.271" fill="#338FC2" width="84.364" height="12.423"/>
<rect x="17.663" y="59.739" fill="#14375D" width="62.695" height="4.333"/>
<rect x="17.663" y="69.318" fill="#14375D" width="72.807" height="4.333"/>
<rect x="17.663" y="78.897" fill="#14375D" width="41.026" height="4.333"/>
<path fill="#338FC2" d="M98.43,162.706c0,1.104-0.896,2-2,2H20.978c-1.104,0-2-0.896-2-2v-12.179c0-1.104,0.896-2,2-2H96.43
	c1.104,0,2,0.896,2,2V162.706z"/>
<circle fill="#179190" cx="58.704" cy="185.091" r="8.814"/>
</svg>
